<?xml version="1.0" encoding="utf-8"?>
<!-- Svg Vector Icons : http://www.onlinewebfonts.com/icon -->
<!DOCTYPE svg PUBLIC "-//W3C//DTD SVG 1.1//EN" "http://www.w3.org/Graphics/SVG/1.1/DTD/svg11.dtd">
<svg version="1.1" xmlns="http://www.w3.org/2000/svg" xmlns:xlink="http://www.w3.org/1999/xlink" x="0px" y="0px" viewBox="0 0 1000 1000" enable-background="new 0 0 1000 1000" xml:space="preserve">
<metadata> Svg Vector Icons : http://www.onlinewebfonts.com/icon </metadata>
<g><g transform="translate(0.000000,511.000000) scale(0.100000,-0.100000)"><path d="M3638.8,4074.2c-30.6-17.8-91.7-79-140.2-137.6c-175.8-221.7-180.9-221.7-667.6-40.8c-203.9,76.5-351.7,114.7-453.6,119.8c-81.5,5.1-155.4,15.3-165.6,25.5c-99.4,96.8-300.7-231.9-453.6-739c-137.6-453.6-407.7-1100.9-866.4-2074.3C608.9,626.4,320.9-46.4,221.5-339.4c-193.7-563.2-158-881.7,122.3-1144.2c168.2-155.4,374.6-254.8,792.5-374.6c196.2-56,542.8-175.8,769.6-265c229.4-89.2,654.9-231.9,948-316c575.9-165.6,698.2-211.5,1251.2-468.9c198.8-94.3,502-221.7,675.3-288c364.4-135.1,420.5-163.1,800.2-379.7c356.8-206.4,591.2-285.4,902.1-303.3c196.2-12.7,247.2-7.6,280.3,22.9c22.9,22.9,89.2,73.9,147.8,114.7c61.1,43.3,244.6,234.4,407.7,425.6c165.6,193.7,346.6,389.9,400.1,440.9c331.3,298.2,440.9,433.2,652.4,790c247.2,420.5,440.8,675.3,639.6,846c186,158,553,387.3,739,458.7c81.5,33.1,150.4,68.8,150.4,79c0,12.7-38.2,66.3-81.6,122.3l-84.1,104.5l71.3,51c81.6,61.1,91.8,165.6,20.4,252.3c-45.9,56.1-45.9,61.2,0,124.9c76.4,104.5,84.1,186,22.9,259.9c-61.2,79-438.3,313.4-604,377.1L9130.4,634l155.5,58.6c191.1,71.3,224.2,104.5,183.5,193.7c-38.2,84.1-38.2,86.6,30.6,89.2c30.6,0,94.3,15.3,140.2,33.1l86.7,30.6l-188.6,178.4l-188.6,180.9l38.2,81.5c38.2,79,35.7,86.6-10.2,119.8c-28,20.4-109.6,56.1-183.5,79c-109.6,33.1-135.1,53.5-135.1,96.8c0,114.7-86.7,158-553,265c-644.7,147.8-1623.3,438.3-2339.3,698.2c-290.5,104.5-379.7,147.8-479.1,237c-175.8,155.4-405.2,303.2-833.3,532.6c-203.9,107-479.1,270.1-611.6,359.3C3888.5,4102.3,3766.2,4145.6,3638.8,4074.2z M3868.1,3964.7c45.9-25.5,165.6-99.4,270.1-170.7c104.5-68.8,379.7-229.4,611.6-356.8c389.9-209,690.6-389.9,690.6-415.4c0-5.1-61.2,15.3-132.5,43.3c-662.6,265-1365.9,512.2-1707.4,596.3l-170.7,43.3l130,150.3C3700,4015.6,3738.2,4030.9,3868.1,3964.7z M2741.8,3855.1c147.8-56.1,423-145.3,611.6-193.7c496.9-135.1,981.1-295.6,1615.6-540.2c308.3-117.2,593.8-229.3,637.1-249.7c40.8-17.8,300.7-114.7,573.4-211.5c621.8-224.3,1386.3-453.6,2069.2-621.8c290.5-71.3,563.2-150.4,606.5-178.4c76.5-45.9,79-53.5,63.7-168.2c-12.7-86.7-81.6-229.3-242.1-502c-290.5-499.5-359.3-629.4-619.2-1146.7c-119.8-239.6-313.4-578.5-428.1-751.7c-288-438.3-341.5-563.2-405.2-940.3c-30.6-173.3-76.4-359.3-104.5-412.8c-28-56-43.3-99.4-38.2-99.4c17.8,0-244.7-545.4-270.1-563.2c-12.7-7.6-22.9-25.5-20.4-38.2c2.5-12.7-79-193.7-183.5-402.6c-152.9-313.4-186-405.2-188.6-509.7l-2.6-130l-112.1,7.6c-206.4,12.7-440.8,101.9-749.2,288c-344,203.9-387.4,224.2-904.7,423c-203.9,79-540.2,219.2-751.7,313.4c-440.9,198.8-690.6,290.5-1192.6,435.8c-198.8,56.1-560.6,178.4-802.7,267.6c-242.1,89.2-596.3,211.5-790,267.6c-191.1,58.6-415.4,140.2-496.9,183.5c-300.7,158-451.1,420.5-412.8,728.8c38.2,321.1,326.2,1057.5,909.8,2308.8c433.2,925,522.4,1144.2,733.9,1755.8c160.5,471.4,193.7,547.9,303.2,713.5c63.7,96.8,66.3,96.8,193.7,84.1C2413.1,3964.7,2594,3911.1,2741.8,3855.1z M9183.9,1582c96.8-33.1,99.4-58.6,10.2-188.6c-89.2-135.1-621.8-759.4-805.3-942.9c-38.2-38.2,175.8,364.4,415.4,782.3c135.1,234.4,231.9,374.6,257.4,377.1C9084.5,1610,9138,1597.3,9183.9,1582z M9461.7,1217.6c79-76.5,112.1-122.3,94.3-140.2c-12.7-12.7-117.2-43.3-229.4-66.3c-112.1-22.9-231.9-48.4-265-56.1c-51-12.7-38.2,15.3,89.2,178.4c84.1,107,160.6,193.7,170.7,193.7C9334.3,1329.7,9395.4,1278.7,9461.7,1217.6z M9349.6,878.7c25.5-61.2-17.8-91.7-288-201.3c-287.9-117.2-461.2-239.5-711-504.6C8246.1,63.2,8174.8-3,8190.1,27.5c45.9,86.6,563.2,644.7,680.4,736.5C9046.3,901.6,9316.4,965.3,9349.6,878.7z M9446.4,432.7c377.1-193.7,405.2-270.1,186-527.5c-66.3-76.4-198.8-254.8-298.2-395c-293.1-415.4-364.4-507.1-708.4-869c-410.3-435.8-484.2-532.6-733.9-960.7c-234.5-400.1-387.3-609.1-733.9-1001.5c-303.3-341.5-369.5-395-563.2-456.2c-101.9-33.1-76.4,137.6,61.2,425.6l119.8,247.2l84.1-15.3c73.9-12.7,84.1-10.2,84.1,38.2c0,28-7.6,53.5-17.8,53.5c-12.7,0-35.7,10.2-53.5,22.9c-30.6,17.8-28,35.7,5.1,99.4l40.8,79l165.6-76.4c89.2-40.8,180.9-73.9,203.9-73.9c81.6,0,33.1,43.3-140.2,127.4c-96.8,48.4-178.4,96.8-178.4,107c0,51,132.5,275.2,160.5,275.2c17.8,0,84.1-33.1,147.8-71.3c193.7-122.3,183.5-119.8,150.4-56.1c-15.3,30.6-86.7,91.7-155.4,132.5c-68.8,43.3-124.9,89.2-124.9,101.9s45.9,112.1,101.9,224.2l101.9,203.9l206.4-101.9c112.1-56.1,214.1-96.8,226.8-89.2c58.6,35.7,15.3,89.2-119.8,152.9c-81.6,35.7-173.3,84.1-203.9,104.5l-58.6,35.7l56.1,114.7l56.1,114.7l183.5-101.9c183.5-99.4,272.7-124.9,300.7-79c22.9,33.1-364.4,239.6-420.5,224.3c-28-7.7-48.4-7.7-48.4-2.6c0,22.9,104.5,214.1,117.2,214.1c22.9,0,277.8-132.5,346.6-180.9c81.6-58.6,196.2-68.8,150.3-12.7c-28,33.1-349.1,198.8-443.4,229.3c-43.3,12.7-40.8,20.4,7.6,117.2c45.9,91.7,58.6,101.9,122.3,84.1c114.7-28,242.1-86.7,356.8-163.1c130-86.6,132.5-89.2,132.5-22.9c0,61.1-178.4,183.5-361.9,249.7c-135.1,45.9-145.3,71.3-76.5,158c45.9,56.1,56.1,56.1,168.2,28c68.8-15.3,224.2-81.6,351.7-145.3c127.4-63.7,234.4-109.6,242.1-101.9c15.3,15.3-453.6,252.3-583.6,293.1c-53.5,17.8-96.8,38.2-96.8,45.9c0,12.7,73.9,119.7,145.3,208.9c2.5,5.1,122.3-43.3,262.5-109.6c140.2-66.2,282.9-122.3,318.5-124.9c114.7-10.2,76.4,38.2-76.4,96.8c-229.4,84.1-420.5,188.6-420.5,224.2c0,15.3,33.1,68.8,71.3,114.7l68.8,84.1l267.6-119.8c308.3-135.1,547.9-178.4,575.9-99.4c35.7,89.2-53.5,175.8-321.1,308.3c-142.7,73.9-270.1,142.7-280.3,152.9c-30.6,30.6,316,486.7,415.4,547.9c45.9,25.5,107,48.4,137.6,48.4S9301.1,504.1,9446.4,432.7z M8559.6,216.1c-122.3-168.2-553-705.9-591.2-746.6c-135-132.5,252.3,405.2,461.2,644.7C8615.6,323.1,8679.3,371.5,8559.6,216.1z M9084.5-375.1c0-12.7-17.8-35.7-38.2-53.5c-33.1-25.5-66.2-28-163.1-5.1c-155.4,35.7-486.7,180.9-486.7,214.1c0,15.3,25.5,56,56.1,91.7l56.1,68.8l287.9-147.8C8954.6-288.4,9084.5-364.9,9084.5-375.1z M9782.8-260.4c-17.8-43.3-265-231.9-265-198.8c0,10.2,53.5,86.7,117.2,168.2c94.3,119.8,122.3,142.7,140.2,109.6C9787.9-201.8,9790.4-237.5,9782.8-260.4z M9591.7-714c-114.7-53.5-226.8-109.6-249.8-124.9c-22.9-17.8,43.3,53.5,145.3,155.5L9675.8-500l61.1-58.6l63.7-58.6L9591.7-714z M7525-1078.4c-30.6-61.2-58.6-109.6-66.3-104.5c-10.2,12.7,91.7,219.2,109.6,219.2C7575.9-963.8,7555.6-1014.7,7525-1078.4z M7397.5-1537.1c-15.3-35.7-33.1-61.2-35.7-56.1c-15.3,15.3,22.9,119.8,43.3,119.8C7417.9-1473.4,7412.9-1501.5,7397.5-1537.1z M8330.3-1924.5c-112.1-198.8-339-542.8-356.8-542.8c-20.4,0,127.4,257.4,275.2,479.1C8388.9-1779.2,8432.2-1746.1,8330.3-1924.5z"/><path d="M3536.9,2774.6c-206.4-440.9-198.8-415.4-137.6-451.1c51-25.5,63.7-7.6,196.2,280.3c81.5,168.2,152.9,305.8,163.1,305.8c25.5,0,178.4-466.3,178.4-542.8c0-84.1,66.3-137.6,122.3-101.9c22.9,12.7,101.9,114.7,175.8,224.2c142.7,211.5,191.1,359.3,132.5,397.5c-53.5,33.1-58.6,30.6-107-89.2c-63.7-155.4-191.1-351.7-219.2-336.4c-12.7,7.7-30.6,45.9-40.8,84.1c-30.6,124.9-196.2,530-226.8,547.9c-15.3,10.2-38.2,20.4-53.5,20.4C3707.6,3113.5,3623.5,2960.6,3536.9,2774.6z"/><path d="M4563.8,2677.8c-38.2-28-89.2-94.3-114.7-145.2c-61.2-122.3-158-440.9-140.2-468.9c22.9-35.7,242.1-140.2,387.3-180.9c186-56.1,142.7-7.7-53.5,56.1c-242.1,81.6-237,73.9-170.7,267.6c30.6,91.7,61.2,168.2,66.3,168.2c5.1,0,81.5-28,168.2-63.7c183.5-73.9,173.3-73.9,173.3-28c0,22.9-61.2,61.2-152.9,94.3c-84.1,30.6-152.9,68.8-152.9,89.2c0,61.2,130,188.6,191.1,188.6c33.1,0,112.1-45.9,180.9-101.9c63.7-58.6,124.9-96.8,135-89.2c7.7,10.2-12.7,38.2-48.4,66.3C4757.5,2751.7,4686.2,2774.6,4563.8,2677.8z"/><path d="M1783.6,2552.9c-22.9-35.7,109.6-109.6,458.7-257.4c461.2-193.7,823.1-305.8,1567.2-481.6c807.8-188.6,1098.3-275.2,1740.5-514.8c270.1-99.4,700.8-244.6,960.7-326.2c573.4-175.8,866.4-282.9,1134-410.3c216.6-104.5,254.8-114.7,280.3-73.9c10.2,15.3-94.3,79-247.2,150.3c-265,127.4-660,265-1480.5,525c-247.2,76.5-626.9,209-840.9,290.5c-540.2,206.4-790,277.8-1763.4,499.5c-519.9,119.8-1088.1,308.3-1460.2,484.2C1819.3,2588.6,1806.6,2591.1,1783.6,2552.9z"/><path d="M5279.9,2560.5c-48.4-45.9,7.6-598.9,73.9-759.4c20.4-48.4,53.5-89.2,71.3-89.2c40.8,0,165.6,145.3,282.9,326.2c63.7,96.8,76.5,104.5,99.4,63.7c22.9-40.8,30.6-361.9,10.2-517.3c-5.1-48.4,5.1-66.3,45.9-71.3c38.2-5.1,107,51,254.8,206.4c214.1,226.8,333.8,417.9,308.4,486.7c-28,73.9-79,43.3-152.9-86.6c-38.2-68.8-127.4-186-196.2-259.9l-124.9-135.1l-2.5,127.4c0,178.4-68.8,423-132.5,484.2c-30.6,30.6-56.1,40.8-63.7,22.9c-5.1-15.3-73.9-127.4-152.9-249.7c-94.3-142.7-152.9-211.5-170.7-193.7c-12.7,12.7-28,152.9-35.7,310.9C5381.9,2532.5,5348.7,2631.9,5279.9,2560.5z"/><path d="M1633.3,2191c-22.9-30.6-40.8-68.8-40.8-84.1c0-12.7-112.1-229.4-249.7-476.5c-186-331.3-300.7-578.5-438.3-942.9C802.5,417.4,636.9,2.1,535-232.4C318.4-729.3,305.6-680.9,687.9-731.9c354.2-48.4,573.4-117.2,902.1-282.9c361.9-180.9,573.4-254.8,726.3-254.8c244.6,0,305.8,68.8,344,374.6c28,224.2,40.8,252.3,234.4,593.8c66.3,119.8,158,321.1,203.9,445.9c91.7,267.6,173.3,433.2,361.9,744.1c175.8,293.1,313.4,542.8,333.8,606.5c12.7,43.3-15.3,71.3-150.4,163.1c-372.1,242.1-840.9,412.8-1447.4,525C1755.6,2262.4,1684.3,2264.9,1633.3,2191z M1911,2175.8c-15.3-12.7-68.8-48.4-119.8-79l-94.3-56.1l30.6,79c25.5,63.7,43.3,76.5,117.2,76.5C1895.8,2196.1,1923.8,2185.9,1911,2175.8z M2405.4,2094.2c563.2-117.2,1251.2-433.2,1251.2-575.9c0-53.5-135.1-313.4-298.2-583.6l-140.2-229.3l-665.1-318.5c-367-173.3-869-405.2-1113.6-512.2C1014-311.4,917.2-380.2,1047.2-398c63.7-10.2,662.6,249.7,1462.7,634.5c316,150.3,575.9,270.1,578.5,267.6c20.4-17.8-193.7-547.9-303.3-756.9c-127.4-239.5-130-244.6-198.8-219.1c-61.2,22.9-107,5.1-384.8-140.2c-581-305.8-586.1-310.9-474-338.9c43.3-12.7,117.2,17.8,257.4,101.9c221.7,130,509.7,277.8,596.3,305.8c58.6,17.8,58.6,15.3,20.4-58.6c-20.4-40.8-45.9-122.3-56.1-180.9c-15.3-91.7-22.9-101.9-73.9-89.2c-91.7,22.9-522.4-117.2-522.4-170.7c0-48.4,104.5-43.3,231.9,12.7c76.5,35.7,183.5,71.4,237,81.6l99.4,17.8l-15.3-96.8c-40.8-257.4-196.2-254.8-774.7,20.4c-456.1,216.6-491.8,229.3-909.7,298.2c-165.6,28-308.3,56.1-313.5,61.1c-5.1,5.1,86.7,237,203.9,514.8c117.2,280.3,234.4,563.2,257.4,632c40.8,109.6,71.4,137.6,254.8,257.4c112.1,73.9,395,234.5,626.9,356.8c231.9,122.3,496.9,272.7,591.2,336.4c229.3,150.3,415.4,321.1,392.4,359.3c-30.6,51-104.5,35.7-170.7-35.7c-99.4-107-517.3-372.1-960.7-606.5c-226.8-119.8-458.7-247.2-514.8-282.9l-99.4-63.7l25.5,71.3c12.7,38.2,66.3,158,117.2,265c89.2,191.1,94.3,198.8,298.1,316c316,183.5,779.8,489.3,779.8,514.8c0,12.7-15.3,38.2-35.7,53.5c-28,22.9-94.3-7.6-326.2-158c-374.6-244.6-489.3-310.9-476.5-282.9c71.3,163.1,163.1,290.5,262.5,361.9c178.4,127.4,321.1,203.9,367,193.7C2122.6,2150.3,2260.2,2122.2,2405.4,2094.2z"/><path d="M2650.1,1301.7C1883,743.6,1340.2,397,1016.6,259.4c-91.7-40.8-114.7-58.6-91.7-81.5c40.8-40.8,389.9,127.4,805.3,387.3c298.2,186,1455.1,1004,1483.1,1047.4c7.6,12.7-12.7,22.9-45.9,22.9C3131.7,1635.5,2920.2,1497.9,2650.1,1301.7z"/><path d="M2955.9,1026.5c-772.1-326.2-1213-553-1720.1-879.2c-193.7-124.9-229.4-158-183.5-163.1c38.2-5.1,142.7,45.9,298.2,145.2c471.4,305.8,1141.6,642.2,1890.8,945.4c114.7,48.4,203.9,94.3,196.2,107C3414.6,1217.6,3373.8,1204.8,2955.9,1026.5z"/><path d="M2318.8-247.7c-588.7-203.9-818-326.2-670.2-354.2c25.5-5.1,186,48.4,356.8,117.2c173.3,68.8,395,152.9,491.8,183.5c226.8,73.9,234.4,76.5,178.4,119.8C2614.4-138.1,2645-133,2318.8-247.7z"/><path d="M6589.7,1977c-79-101.9-66.3-186,61.2-382.2c122.3-188.6,135-242.1,79-288c-107-89.2-321.1-45.9-359.3,71.3c-17.8,58.6-86.7,91.7-122.3,56.1c-38.2-38.2,53.5-147.8,163.1-191.1c132.5-53.5,242.1-51,374.6,10.2c140.2,63.7,137.6,114.7-7.6,341.5c-122.3,186-140.2,275.2-73.9,367c53.5,76.5,94.3,71.4,186.1-33.1c43.3-48.4,101.9-89.2,130-89.2c73.9,0,63.7,35.7-38.2,124.9c-76.5,66.3-112.1,79-216.6,79S6633.1,2033,6589.7,1977z"/><path d="M4056.7,1413.8c-38.2-35.7-15.3-140.2,43.3-198.8c71.4-71.3,344-160.5,856.2-280.3c203.9-48.4,598.9-152.9,879.2-229.3c280.3-76.5,693.1-175.8,914.8-219.2c514.7-99.4,591.2-124.9,835.8-293.1c191.1-130,326.2-173.3,361.9-114.7c25.5,38.2-81.5,147.8-196.2,201.3c-226.8,107-672.8,237-1523.9,448.5c-1032.1,254.8-1327.7,349.1-1753.2,553C4171.4,1426.5,4092.4,1452,4056.7,1413.8z M4360,1248.2c96.8-43.3,313.4-130,481.6-188.6c168.2-61.2,293.1-109.6,275.2-109.6c-51-2.6-718.6,173.3-779.8,203.9c-71.4,35.7-170.7,127.4-170.7,155.4C4166.3,1337.4,4166.3,1337.4,4360,1248.2z M6370.6,644.2c211.5-56.1,361.9-101.9,338.9-101.9c-45.9-2.5-739,170.7-756.9,191.1C5929.7,753.8,5993.4,741.1,6370.6,644.2z M6834.4,524.4c-7.6-7.6-30.6-10.2-48.4-2.6c-20.4,7.7-12.7,15.3,15.3,15.3C6829.3,539.7,6844.6,532.1,6834.4,524.4z"/><path d="M3921.7,950c7.7-12.7,43.3-30.6,81.6-38.2c35.7-10.2,384.8-142.7,774.7-295.6c392.4-155.4,744.1-280.3,782.3-277.8h71.3l-76.4,35.7C5437.9,430.2,4380.4,843,4181.6,911.8C3998.1,975.5,3898.7,990.8,3921.7,950z"/><path d="M3784.1,695.2c0-51,382.2-214.1,993.8-423c316-107,593.8-209,619.2-221.7c25.5-12.7,53.5-17.9,63.7-10.2c38.2,40.8-96.8,99.4-593.8,272.7C4574,412.3,4230,539.7,4102.6,595.8C3817.2,720.7,3784.1,730.9,3784.1,695.2z"/><path d="M5810,338.4c119.8-58.6,1501-591.2,1569.7-606.5c145.3-28,71.4,33.1-135,112.1c-117.2,43.3-451.1,173.3-744.1,287.9c-295.6,114.7-581,214.1-637.1,219.2C5781.9,361.4,5769.2,356.3,5810,338.4z"/><path d="M3669.4,310.4c-17.8-28,25.5-45.9,680.4-295.6c277.8-101.9,591.2-224.2,698.2-265c183.5-73.9,265-84.1,265-30.6c0,12.7-152.9,81.5-336.4,152.9C3720.3,356.3,3702.5,363.9,3669.4,310.4z"/><path d="M5644.3,96.3c0-17.8,91.7-76.4,206.4-130c211.5-99.4,1455.1-545.4,1472.9-530c40.8,33.1-137.6,112.1-637.1,285.4c-313.5,109.6-677.9,244.7-805.3,300.7C5730.9,88.7,5644.3,116.7,5644.3,96.3z"/><path d="M3567.5,7.1c-7.6-15.3,2.5-28,25.5-28c86.6,0,634.5-196.2,1047.4-372.1c430.7-188.6,494.4-208.9,494.4-165.6c0,30.6-858.8,392.5-1146.7,481.6C3666.8,22.5,3587.8,37.7,3567.5,7.1z"/><path d="M3542-176.3c-10.2-15.3-12.7-30.6-10.2-33.1c5.1-5.1,333.8-132.5,728.8-282.9c563.2-214.1,726.3-267.6,764.5-247.2c43.3,25.5,43.3,28-5.1,45.9c-28,10.2-130,48.4-229.3,86.7c-382.2,150.3-1202.8,458.7-1218.1,458.7C3564.9-148.3,3549.6-161,3542-176.3z"/><path d="M5562.8-270.6c-25.5-5.1-45.9-17.8-45.9-28c0-22.9,45.9-43.3,739-305.8c287.9-109.6,593.8-229.3,682.9-265c147.8-61.2,234.5-66.3,234.5-17.8c0,22.9-45.9,43.3-764.5,318.5c-300.7,114.7-604,231.9-675.3,259.9C5664.7-280.8,5585.7-263,5562.8-270.6z"/><path d="M3299.9-372.5c0-12.7,76.5-56.1,173.3-94.3c94.3-40.8,372.1-165.6,619.2-282.9c359.3-168.2,848.6-366.9,904.6-366.9c5.1,0,10.2,15.3,10.2,35.7c0,22.9-79,61.2-209,107c-117.2,35.7-395,152.9-619.2,257.4C3483.4-390.4,3299.9-319,3299.9-372.5z"/><path d="M5425.2-601.9c10.2-17.8,35.7-30.6,53.5-30.6c81.6,0,560.6-170.7,981.1-349.1c244.6-101.9,471.4-186,507.1-180.9c73.9,10.2-705.9,346.6-1083.1,471.4C5583.2-594.2,5397.1-558.6,5425.2-601.9z"/><path d="M3172.5-706.4c0-30.6,10.2-53.5,22.9-53.5c15.3,0,374.6-155.5,800.2-344c721.2-321.1,884.3-379.7,884.3-321.1c0,35.7-22.9,48.4-446,234.4c-209,91.8-553,244.6-761.9,338.9C3208.1-645.2,3172.5-635,3172.5-706.4z"/><path d="M5379.3-780.3c-12.7-22.9,150.4-89.2,1055-433.2c361.9-137.6,458.7-160.6,458.7-107c0,20.4-1327.7,535.1-1429.6,553C5425.2-759.9,5389.5-765,5379.3-780.3z"/><path d="M5160.1-961.2c0-30.6,48.4-66.2,152.9-104.5c48.4-17.8,318.5-140.2,598.8-270.1c695.7-318.5,1049.9-443.4,958.2-331.3c-17.8,20.4-68.8,45.9-112.1,56.1c-130,25.5-430.7,150.4-871.5,359.3C5425.2-1035.1,5160.1-928.1,5160.1-961.2z"/><path d="M2986.4-1032.6c-33.1-33.1-17.8-53.5,58.6-66.2c40.8-10.2,305.8-107,586.1-219.2c624.3-249.7,993.8-356.8,1067.7-310.9c45.9,28,17.8,43.3-158,79c-193.7,38.2-494.4,142.7-858.8,293c-275.2,114.7-626.9,242.1-662.6,242.1C3009.4-1014.7,2994.1-1022.4,2986.4-1032.6z"/><path d="M563-1149.8c-38.2-28,0-40.8,275.2-91.8c764.5-137.6,1725.2-412.8,2945.8-838.4c400.1-140.2,840.9-280.3,981.1-310.9c723.7-160.5,988.7-244.6,1230.8-400.1c140.2-89.2,193.7-101.9,221.7-56.1c25.5,38.2-43.3,86.7-280.3,201.3c-216.6,107-430.7,170.7-1044.8,313.4c-209,51-644.7,183.5-965.8,295.6c-1121.3,400.1-2094.7,680.4-2915.3,843.5C552.8-1103.9,619.1-1109,563-1149.8z"/><path d="M2790.2-1241.5c0-48.4,471.4-295.6,815.5-428.1c214.1-81.6,779.8-237,863.9-237c127.4,0-2.5,68.8-239.5,127.4c-466.3,114.7-1065.2,351.7-1284.3,509.7C2869.2-1216,2790.2-1200.7,2790.2-1241.5z"/><path d="M5037.8-1310.3c5.1-25.5,163.1-109.6,428.1-226.8c231.9-101.9,581-254.8,774.7-341.5c354.2-158,471.5-193.7,491.8-140.2c10.2,28-1590.1,749.2-1661.5,749.2C5045.5-1269.5,5032.7-1287.4,5037.8-1310.3z"/><path d="M4834-1654.4c7.6-20.4,33.1-40.8,61.2-43.3c25.5-5.1,290.5-104.5,583.6-221.7c532.6-211.5,874.1-318.5,1009.1-318.5c150.4,0,84.1,43.3-150.3,99.4c-135.1,30.6-489.3,155.5-787.4,272.7C4986.9-1641.6,4811-1588.1,4834-1654.4z"/><path d="M4665.8-1827.6c-33.1-53.5,344-267.6,749.2-425.6c249.7-96.8,840.9-265,927.6-265c119.7,0-30.6,76.4-277.8,140.2c-486.7,127.4-925,298.2-1253.8,496.9C4739.7-1837.8,4673.4-1814.9,4665.8-1827.6z"/><path d="M7326.2-2110.5c-43.3-25.5-48.4-20.4,117.2-119.8c109.6-66.2,137.6-73.9,183.5-48.4c53.5,28,48.4,33.2-81.6,112.1C7395-2077.4,7382.3-2074.8,7326.2-2110.5z"/></g></g>
</svg>